<svg xmlns="http://www.w3.org/2000/svg" width="256" height="192" viewBox="0 0 256 192">
  <defs>
    <linearGradient id="bg" x1="0%" y1="0%" x2="100%" y2="100%">
      <stop offset="0%" style="stop-color:#0d1117"/>
      <stop offset="100%" style="stop-color:#1c2333"/>
    </linearGradient>
    <linearGradient id="weapon" x1="0%" y1="0%" x2="100%" y2="100%">
      <stop offset="0%" style="stop-color:#d32ce6"/>
      <stop offset="100%" style="stop-color:#d32ce688"/>
    </linearGradient>
    <filter id="glow">
      <feGaussianBlur stdDeviation="3" result="blur"/>
      <feMerge><feMergeNode in="blur"/><feMergeNode in="SourceGraphic"/></feMerge>
    </filter>
  </defs>
  <rect width="256" height="192" fill="url(#bg)" rx="8"/>
  <rect x="0" y="186" width="256" height="6" fill="#d32ce6" rx="0"/>
  <path d="M65,93 L115,89 L185,92 L210,97 L210,103 L185,108 L170,113 L160,105 L115,105 L65,100 Z" fill="url(#weapon)" filter="url(#glow)" opacity="0.9"/>
  <path d="M65,93 L115,89 L185,92 L210,97 L210,103 L185,108 L170,113 L160,105 L115,105 L65,100 Z" fill="none" stroke="#d32ce6" stroke-width="1" opacity="0.5"/>
  <text x="128" y="155" text-anchor="middle" font-family="Arial,sans-serif" font-weight="bold" font-size="11" fill="#e6edf3">Glock-18 Moonrise</text>
  <text x="128" y="172" text-anchor="middle" font-family="Arial,sans-serif" font-size="9" fill="#d32ce6">Glock-18</text>
</svg>