<svg xmlns="http://www.w3.org/2000/svg" width="256" height="192" viewBox="0 0 256 192">
  <defs>
    <linearGradient id="bg" x1="0%" y1="0%" x2="100%" y2="100%">
      <stop offset="0%" style="stop-color:#0d1117"/>
      <stop offset="100%" style="stop-color:#1c2333"/>
    </linearGradient>
    <linearGradient id="weapon" x1="0%" y1="0%" x2="100%" y2="100%">
      <stop offset="0%" style="stop-color:#b0c3d9"/>
      <stop offset="100%" style="stop-color:#b0c3d988"/>
    </linearGradient>
    <filter id="glow">
      <feGaussianBlur stdDeviation="3" result="blur"/>
      <feMerge><feMergeNode in="blur"/><feMergeNode in="SourceGraphic"/></feMerge>
    </filter>
  </defs>
  <rect width="256" height="192" fill="url(#bg)" rx="8"/>
  <rect x="0" y="186" width="256" height="6" fill="#b0c3d9" rx="0"/>
  <path d="M50,93 L100,88 L190,90 L220,97 L220,103 L190,108 L175,114 L165,105 L100,105 L50,100 Z" fill="url(#weapon)" filter="url(#glow)" opacity="0.9"/>
  <path d="M50,93 L100,88 L190,90 L220,97 L220,103 L190,108 L175,114 L165,105 L100,105 L50,100 Z" fill="none" stroke="#b0c3d9" stroke-width="1" opacity="0.5"/>
  <text x="128" y="155" text-anchor="middle" font-family="Arial,sans-serif" font-weight="bold" font-size="11" fill="#e6edf3">MAC-10 Candy Apple</text>
  <text x="128" y="172" text-anchor="middle" font-family="Arial,sans-serif" font-size="9" fill="#b0c3d9"></text>
</svg>